<svg xmlns="http://www.w3.org/2000/svg" viewBox="0 0 128 128">
  <!-- Curling tentacle - thick at base, spiraling inward -->
  <path d="M30 120 Q20 100 25 80 Q30 60 45 45 Q60 30 80 30 Q100 30 105 45 Q110 60 100 72 Q90 84 75 80 Q60 76 58 68 Q56 60 62 55 Q68 50 74 52 Q80 54 78 60 Q76 65 72 64" 
    stroke="#8B3A3A" stroke-width="12" fill="none" stroke-linecap="round"/>
  <!-- Thinner overlay for taper effect -->
  <path d="M30 120 Q20 100 25 80 Q30 60 45 45 Q60 30 80 30 Q100 30 105 45 Q110 60 100 72 Q90 84 75 80 Q60 76 58 68 Q56 60 62 55 Q68 50 74 52 Q80 54 78 60 Q76 65 72 64" 
    stroke="#C05050" stroke-width="6" fill="none" stroke-linecap="round"/>
  <!-- Suction cups (dots along the inner curve) -->
  <circle cx="35" cy="105" r="3" fill="#D4756A" opacity="0.8"/>
  <circle cx="30" cy="90" r="3" fill="#D4756A" opacity="0.8"/>
  <circle cx="32" cy="75" r="2.5" fill="#D4756A" opacity="0.8"/>
  <circle cx="40" cy="60" r="2.5" fill="#D4756A" opacity="0.8"/>
  <circle cx="52" cy="48" r="2" fill="#D4756A" opacity="0.8"/>
  <circle cx="67" cy="38" r="2" fill="#D4756A" opacity="0.8"/>
  <circle cx="83" cy="37" r="2" fill="#D4756A" opacity="0.7"/>
  <circle cx="95" cy="45" r="1.8" fill="#D4756A" opacity="0.7"/>
  <circle cx="97" cy="58" r="1.5" fill="#D4756A" opacity="0.6"/>
  <circle cx="88" cy="70" r="1.5" fill="#D4756A" opacity="0.6"/>
  <circle cx="76" cy="73" r="1.2" fill="#D4756A" opacity="0.5"/>
  <circle cx="66" cy="67" r="1" fill="#D4756A" opacity="0.5"/>
  <circle cx="64" cy="58" r="1" fill="#D4756A" opacity="0.4"/>
</svg>
